
      <svg data-logo="logo" xmlns="http://www.w3.org/2000/svg" viewBox="0 0 236 43">
        <g id="logogram" transform="translate(0, 1) rotate(0) "><path d="M68.75 0.809967H96.25L72.5 40.81H45L68.75 0.809967Z" fill="#FF7A00"/><path d="M43.75 0.809967H63.75L40 40.81H20L43.75 0.809967Z" fill="#FF9736"/><path d="M23.75 0.809967H38.75L15 40.81H0L23.75 0.809967Z" fill="#FFBC7D"/></g>
        <g id="logotype" transform="translate(103, 1.5)"><path fill="#000000" d="M22.84 40L11.14 40L11.14 35.80L20.18 35.80Q21.12 35.80 21.12 34.75L21.12 34.75L21.12 30.48L20.49 30.48Q19.97 31.63 18.76 32.56Q17.55 33.49 15.07 33.49L15.07 33.49Q12.93 33.49 11.21 32.46Q9.50 31.43 8.48 29.45Q7.47 27.47 7.47 24.63L7.47 24.63L7.47 24.00Q7.47 21.20 8.54 19.23Q9.61 17.25 11.37 16.20Q13.14 15.15 15.24 15.15L15.24 15.15Q17.34 15.15 18.58 15.94Q19.83 16.72 20.49 18.16L20.49 18.16L21.12 18.16L21.12 15.64L25.53 15.64L25.53 37.27Q25.53 38.46 24.78 39.23Q24.03 40 22.84 40L22.84 40ZM16.50 29.29L16.50 29.29Q18.57 29.29 19.84 27.98Q21.12 26.66 21.12 24.53L21.12 24.53L21.12 24.11Q21.12 21.98 19.84 20.66Q18.57 19.35 16.50 19.35L16.50 19.35Q14.47 19.35 13.18 20.64Q11.88 21.94 11.88 24.11L11.88 24.11L11.88 24.53Q11.88 26.70 13.18 27.99Q14.47 29.29 16.50 29.29ZM38.13 33.49L38.13 33.49Q35.75 33.49 33.69 32.44Q31.62 31.39 30.36 29.39Q29.10 27.40 29.10 24.53L29.10 24.53L29.10 24.11Q29.10 21.27 30.36 19.26Q31.62 17.25 33.69 16.20Q35.75 15.15 38.13 15.15L38.13 15.15Q40.51 15.15 42.58 16.20Q44.64 17.25 45.90 19.26Q47.16 21.27 47.16 24.11L47.16 24.11L47.16 24.53Q47.16 27.40 45.90 29.39Q44.64 31.39 42.58 32.44Q40.51 33.49 38.13 33.49ZM38.13 29.29L38.13 29.29Q40.06 29.29 41.40 28.05Q42.75 26.80 42.75 24.67L42.75 24.67L42.75 23.97Q42.75 21.80 41.40 20.57Q40.06 19.35 38.13 19.35L38.13 19.35Q36.20 19.35 34.86 20.57Q33.51 21.80 33.51 23.97L33.51 23.97L33.51 24.67Q33.51 26.80 34.86 28.05Q36.20 29.29 38.13 29.29ZM67.64 33L51.47 33L51.47 28.80L57.56 28.80L57.56 12.70L51.68 12.70L51.68 8.50L61.97 8.50L61.97 28.80L67.64 28.80L67.64 33ZM81.36 13.82L81.36 13.82Q79.99 13.82 79.01 12.86Q78.03 11.89 78.03 10.49L78.03 10.49Q78.03 9.09 79.01 8.13Q79.99 7.17 81.36 7.17L81.36 7.17Q82.72 7.17 83.70 8.13Q84.68 9.09 84.68 10.49L84.68 10.49Q84.68 11.89 83.70 12.86Q82.72 13.82 81.36 13.82ZM88.64 33L73.31 33L73.31 28.80L79.19 28.80L79.19 19.84L73.73 19.84L73.73 15.64L83.59 15.64L83.59 28.80L88.64 28.80L88.64 33ZM106.56 33L98.16 33L93.19 15.64L97.95 15.64L102.04 30.90L102.67 30.90L106.77 15.64L111.53 15.64L106.56 33ZM123.99 33.49L123.99 33.49Q121.40 33.49 119.40 32.39Q117.41 31.29 116.29 29.22Q115.17 27.16 115.17 24.25L115.17 24.25L115.17 24.04Q115.17 21.38 116.36 19.38Q117.55 17.39 119.52 16.27Q121.50 15.15 123.92 15.15L123.92 15.15Q126.16 15.15 127.77 15.92Q129.38 16.69 130.41 17.91Q131.44 19.14 131.95 20.59Q132.46 22.04 132.46 23.41L132.46 23.41L132.46 25.75L119.72 25.75Q119.79 27.29 121.01 28.29Q122.24 29.29 123.92 29.29L123.92 29.29Q125.56 29.29 126.45 28.70Q127.35 28.10 127.70 27.33L127.70 27.33L131.48 29.43Q131.09 30.30 130.20 31.25Q129.31 32.20 127.80 32.84Q126.30 33.49 123.99 33.49ZM119.79 21.98L119.79 21.98L127.98 21.98Q127.77 20.75 126.66 19.95Q125.56 19.14 123.88 19.14L123.88 19.14Q122.24 19.14 121.17 20.00Q120.10 20.85 119.79 21.98Z"/></g>
        
      </svg>
    